<?xml version="1.0" encoding="UTF-8"?>
<!DOCTYPE svg PUBLIC "-//W3C//DTD SVG 1.1//EN" "http://www.w3.org/Graphics/SVG/1.1/DTD/svg11.dtd">
<svg xmlns="http://www.w3.org/2000/svg" version="1.1" width="300px" height="300px" style="shape-rendering:geometricPrecision; text-rendering:geometricPrecision; image-rendering:optimizeQuality; fill-rule:evenodd; clip-rule:evenodd" xmlns:xlink="http://www.w3.org/1999/xlink">
<g><path style="opacity:0.97" fill="#d9d9d9" d="M 187.5,71.5 C 169.662,82.9182 151.995,94.5849 134.5,106.5C 115.347,117.306 96.68,128.973 78.5,141.5C 77.1713,118.33 77.1713,94.9965 78.5,71.5C 96.7659,59.7838 115.266,48.4504 134,37.5C 151.997,48.6809 169.83,60.0142 187.5,71.5 Z"/></g>
<g><path style="opacity:0.973" fill="#868686" d="M 187.5,71.5 C 191.881,73.6837 195.881,76.3504 199.5,79.5C 181.5,91.5 163.5,103.5 145.5,115.5C 141.833,112.833 138.167,110.167 134.5,107.5C 134.5,107.167 134.5,106.833 134.5,106.5C 151.995,94.5849 169.662,82.9182 187.5,71.5 Z"/></g>
<g><path style="opacity:0.976" fill="#b3b3b3" d="M 199.5,79.5 C 206.525,83.0984 213.358,87.0984 220,91.5C 220.5,115.164 220.667,138.831 220.5,162.5C 201.833,151.167 183.167,139.833 164.5,128.5C 157.993,124.414 151.66,120.08 145.5,115.5C 163.5,103.5 181.5,91.5 199.5,79.5 Z"/></g>
<g><path style="opacity:0.994" fill="#b4b4b4" d="M 134.5,106.5 C 134.5,106.833 134.5,107.167 134.5,107.5C 133.513,112.305 133.179,117.305 133.5,122.5C 115.026,133.906 96.6923,145.573 78.5,157.5C 78.3117,152.39 78.3117,147.057 78.5,141.5C 96.68,128.973 115.347,117.306 134.5,106.5 Z"/></g>
<g><path style="opacity:0.991" fill="#fefefe" d="M 133.5,122.5 C 133.5,130.833 133.5,139.167 133.5,147.5C 133.5,171.167 133.5,194.833 133.5,218.5C 133.5,233.167 133.5,247.833 133.5,262.5C 115.158,262.56 96.8242,262.226 78.5,261.5C 78.4029,226.75 78.4029,192.083 78.5,157.5C 96.6923,145.573 115.026,133.906 133.5,122.5 Z"/></g>
<g><path style="opacity:0.97" fill="#686868" d="M 164.5,128.5 C 183.167,139.833 201.833,151.167 220.5,162.5C 216.785,166.537 212.452,169.87 207.5,172.5C 207.489,170.983 206.823,169.816 205.5,169C 188.814,157.326 171.814,146.159 154.5,135.5C 157.833,133.167 161.167,130.833 164.5,128.5 Z"/></g>
<g><path style="opacity:0.981" fill="#8b8b8b" d="M 154.5,135.5 C 171.814,146.159 188.814,157.326 205.5,169C 206.823,169.816 207.489,170.983 207.5,172.5C 183.081,188.256 158.415,203.589 133.5,218.5C 133.5,194.833 133.5,171.167 133.5,147.5C 140.483,143.528 147.483,139.528 154.5,135.5 Z"/></g>
</svg>
